<svg xmlns="http://www.w3.org/2000/svg" width="1200" height="630" viewBox="0 0 1200 630">
  <defs>
    <linearGradient id="bg" x1="0%" y1="0%" x2="100%" y2="100%">
      <stop offset="0%" stop-color="#52b788"/>
      <stop offset="100%" stop-color="#1b4332"/>
    </linearGradient>
  </defs>

  <!-- Background -->
  <rect width="1200" height="630" fill="url(#bg)"/>

  <!-- Logo (right side) - white leaf on gradient background -->
  <svg x="690" y="40" width="470" height="560" viewBox="0 0 1024 1024" preserveAspectRatio="xMidYMid meet">
    <path d="M 512,800 L 512,960" stroke="rgba(255,255,255,0.45)" stroke-width="16" stroke-linecap="round"/>
    <path d="M 512,120 L 396.3,181.8 L 425.2,199.8 L 324.9,243.6 L 371.7,261.6 L 279.0,305.5 L 337.2,323.5 L 255.8,367.3 L 319.9,385.3 L 253.3,429.1 L 318.0,447.1 L 269.0,490.9 L 329.8,508.9 L 300.0,552.7 L 353.0,570.7 L 343.2,614.5 L 385.4,632.5 L 395.2,676.4 L 424.4,694.4 L 452.6,738.2 L 512,820 Z" fill="rgba(255,255,255,0.92)"/>
    <path d="M 512,120 L 627.7,181.8 L 598.8,199.8 L 699.1,243.6 L 652.3,261.6 L 745.0,305.5 L 686.8,323.5 L 768.2,367.3 L 704.1,385.3 L 770.7,429.1 L 706.0,447.1 L 755.0,490.9 L 694.2,508.9 L 724.0,552.7 L 671.0,570.7 L 680.8,614.5 L 638.6,632.5 L 628.8,676.4 L 599.6,694.4 L 571.4,738.2 L 512,820 Z" fill="rgba(255,255,255,0.68)"/>
    <path d="M 512,120 L 512,820" stroke="rgba(255,255,255,0.45)" stroke-width="12" stroke-linecap="round"/>
    <line x1="512" y1="246.8" x2="396.3" y2="181.8" stroke="rgba(255,255,255,0.35)" stroke-width="6" stroke-linecap="round"/>
    <line x1="512" y1="246.8" x2="627.7" y2="181.8" stroke="rgba(255,255,255,0.35)" stroke-width="6" stroke-linecap="round"/>
    <line x1="512" y1="308.6" x2="324.9" y2="243.6" stroke="rgba(255,255,255,0.35)" stroke-width="6" stroke-linecap="round"/>
    <line x1="512" y1="308.6" x2="699.1" y2="243.6" stroke="rgba(255,255,255,0.35)" stroke-width="6" stroke-linecap="round"/>
    <line x1="512" y1="370.5" x2="279.0" y2="305.5" stroke="rgba(255,255,255,0.35)" stroke-width="6" stroke-linecap="round"/>
    <line x1="512" y1="370.5" x2="745.0" y2="305.5" stroke="rgba(255,255,255,0.35)" stroke-width="6" stroke-linecap="round"/>
    <line x1="512" y1="432.3" x2="255.8" y2="367.3" stroke="rgba(255,255,255,0.35)" stroke-width="6" stroke-linecap="round"/>
    <line x1="512" y1="432.3" x2="768.2" y2="367.3" stroke="rgba(255,255,255,0.35)" stroke-width="6" stroke-linecap="round"/>
    <line x1="512" y1="494.1" x2="253.3" y2="429.1" stroke="rgba(255,255,255,0.35)" stroke-width="6" stroke-linecap="round"/>
    <line x1="512" y1="494.1" x2="770.7" y2="429.1" stroke="rgba(255,255,255,0.35)" stroke-width="6" stroke-linecap="round"/>
    <line x1="512" y1="555.9" x2="269.0" y2="490.9" stroke="rgba(255,255,255,0.35)" stroke-width="6" stroke-linecap="round"/>
    <line x1="512" y1="555.9" x2="755.0" y2="490.9" stroke="rgba(255,255,255,0.35)" stroke-width="6" stroke-linecap="round"/>
    <line x1="512" y1="617.7" x2="300.0" y2="552.7" stroke="rgba(255,255,255,0.35)" stroke-width="6" stroke-linecap="round"/>
    <line x1="512" y1="617.7" x2="724.0" y2="552.7" stroke="rgba(255,255,255,0.35)" stroke-width="6" stroke-linecap="round"/>
    <line x1="512" y1="679.5" x2="343.2" y2="614.5" stroke="rgba(255,255,255,0.35)" stroke-width="6" stroke-linecap="round"/>
    <line x1="512" y1="679.5" x2="680.8" y2="614.5" stroke="rgba(255,255,255,0.35)" stroke-width="6" stroke-linecap="round"/>
    <line x1="512" y1="741.4" x2="395.2" y2="676.4" stroke="rgba(255,255,255,0.35)" stroke-width="6" stroke-linecap="round"/>
    <line x1="512" y1="741.4" x2="628.8" y2="676.4" stroke="rgba(255,255,255,0.35)" stroke-width="6" stroke-linecap="round"/>
    <line x1="512" y1="803.2" x2="452.6" y2="738.2" stroke="rgba(255,255,255,0.35)" stroke-width="6" stroke-linecap="round"/>
    <line x1="512" y1="803.2" x2="571.4" y2="738.2" stroke="rgba(255,255,255,0.35)" stroke-width="6" stroke-linecap="round"/>
  </svg>

  <!-- Open source label pill -->
  <rect x="80" y="74" width="224" height="30" rx="15" fill="rgba(255,255,255,0.18)"/>
  <text x="192" y="94" text-anchor="middle" fill="white" font-family="system-ui,-apple-system,'Segoe UI',sans-serif" font-size="13" font-weight="600" letter-spacing="0.8">OPEN SOURCE · MIT LICENSE</text>

  <!-- Main headline -->
  <text x="80" y="212" fill="white" font-family="system-ui,-apple-system,'Segoe UI',sans-serif" font-size="80" font-weight="700" letter-spacing="-1">local-review</text>

  <!-- Tagline -->
  <text x="80" y="268" fill="rgba(255,255,255,0.90)" font-family="system-ui,-apple-system,'Segoe UI',sans-serif" font-size="28">Privacy-First · Multi-LLM · Code Reviews</text>

  <!-- LLM badges -->
  <rect x="80" y="314" width="172" height="38" rx="19" fill="rgba(255,255,255,0.15)" stroke="rgba(255,255,255,0.45)" stroke-width="1.5"/>
  <text x="166" y="338" text-anchor="middle" fill="white" font-family="system-ui,-apple-system,sans-serif" font-size="15" font-weight="600">&#x2713; Claude &#xB7; FREE</text>

  <rect x="266" y="314" width="172" height="38" rx="19" fill="rgba(255,255,255,0.15)" stroke="rgba(255,255,255,0.45)" stroke-width="1.5"/>
  <text x="352" y="338" text-anchor="middle" fill="white" font-family="system-ui,-apple-system,sans-serif" font-size="15" font-weight="600">&#x2713; Gemini &#xB7; FREE</text>

  <rect x="452" y="314" width="172" height="38" rx="19" fill="rgba(255,255,255,0.08)" stroke="rgba(255,255,255,0.28)" stroke-width="1.5"/>
  <text x="538" y="338" text-anchor="middle" fill="rgba(255,255,255,0.72)" font-family="system-ui,-apple-system,sans-serif" font-size="15">Codex &#xB7; OpenAI+</text>

  <!-- Separator -->
  <line x1="80" y1="408" x2="650" y2="408" stroke="rgba(255,255,255,0.18)" stroke-width="1"/>

  <!-- Feature row -->
  <text x="80" y="450" fill="rgba(255,255,255,0.82)" font-family="system-ui,-apple-system,sans-serif" font-size="17">No telemetry &#xB7; Single binary &#xB7; Pre-commit hooks &#xB7; BYOK</text>

  <!-- CTA -->
  <text x="80" y="558" fill="rgba(255,255,255,0.65)" font-family="'Monaco','Menlo','Ubuntu Mono',monospace" font-size="17">&#x2192;  github.com/mshykov/local-review</text>

  <!-- Star CTA pill -->
  <rect x="80" y="480" width="310" height="46" rx="23" fill="rgba(255,255,255,0.92)"/>
  <text x="235" y="509" text-anchor="middle" fill="#1b4332" font-family="system-ui,-apple-system,sans-serif" font-size="17" font-weight="700">&#x2605; Star on GitHub &#x2014; It&#x2019;s Free</text>
</svg>
